<svg width="16" height="17" viewBox="0 0 16 17" fill="none" xmlns="http://www.w3.org/2000/svg">
<path d="M16 3.4776C15.405 3.7386 14.771 3.9116 14.11 3.9956C14.79 3.5896 15.309 2.9516 15.553 2.1826C14.919 2.5606 14.219 2.8276 13.473 2.9766C12.871 2.3356 12.013 1.9386 11.077 1.9386C9.261 1.9386 7.799 3.4126 7.799 5.2196C7.799 5.4796 7.821 5.7296 7.875 5.9676C5.148 5.8346 2.735 4.5276 1.114 2.5366C0.831 3.0276 0.665 3.5896 0.665 4.1946C0.665 5.3306 1.25 6.3376 2.122 6.9206C1.595 6.9106 1.078 6.7576 0.64 6.5166C0.64 6.5266 0.64 6.5396 0.64 6.5526C0.64 8.1466 1.777 9.4706 3.268 9.7756C3.001 9.8486 2.71 9.8836 2.408 9.8836C2.198 9.8836 1.986 9.8716 1.787 9.8276C2.212 11.1266 3.418 12.0816 4.852 12.1126C3.736 12.9856 2.319 13.5116 0.785 13.5116C0.516 13.5116 0.258 13.4996 0 13.4666C1.453 14.4036 3.175 14.9386 5.032 14.9386C11.068 14.9386 14.368 9.9386 14.368 5.6046C14.368 5.4596 14.363 5.3196 14.356 5.1806C15.007 4.7186 15.554 4.1416 16 3.4776Z" fill="#B0B8BC"/>
</svg>
