<svg width="16" height="17" viewBox="0 0 16 17" fill="none" xmlns="http://www.w3.org/2000/svg">
<path fill-rule="evenodd" clip-rule="evenodd" d="M13.456 3.36385C14.415 3.41785 14.886 3.55985 15.32 4.33185C15.772 5.10285 16 6.43085 16 8.76985V8.77285V8.77785C16 11.1059 15.772 12.4439 15.321 13.2069C14.887 13.9789 14.416 14.1189 13.457 14.1839C12.498 14.2389 10.089 14.2719 8.002 14.2719C5.911 14.2719 3.501 14.2389 2.543 14.1829C1.586 14.1179 1.115 13.9779 0.677 13.2059C0.23 12.4429 0 11.1049 0 8.77685V8.77485V8.77185V8.76885C0 6.43085 0.23 5.10285 0.677 4.33185C1.115 3.55885 1.587 3.41785 2.544 3.36285C3.501 3.29885 5.911 3.27185 8.002 3.27185C10.089 3.27185 12.498 3.29885 13.456 3.36385ZM11 8.77185L6 5.77185V11.7719L11 8.77185Z" fill="#B0B8BC"/>
</svg>
