<svg width="16" height="17" viewBox="0 0 16 17" fill="none" xmlns="http://www.w3.org/2000/svg">
<path fill-rule="evenodd" clip-rule="evenodd" d="M3.5 2.35522C3.5 3.32172 2.7165 4.10522 1.75 4.10522C0.783502 4.10522 0 3.32172 0 2.35522C0 1.38873 0.783502 0.605225 1.75 0.605225C2.7165 0.605225 3.5 1.38873 3.5 2.35522ZM0 5.60522H3.578V16.6052H0V5.60522ZM13.2998 5.72642C13.2954 5.72495 13.2909 5.72348 13.2864 5.722C13.2616 5.71378 13.2367 5.70556 13.21 5.69822C13.162 5.68722 13.114 5.67822 13.065 5.67022C12.875 5.63222 12.667 5.60522 12.423 5.60522C10.337 5.60522 9.014 7.12222 8.578 7.70822V5.60522H5V16.6052H8.578V10.6052C8.578 10.6052 11.282 6.83922 12.423 9.60522V16.6052H16V9.18222C16 7.52022 14.861 6.13522 13.324 5.73422C13.3159 5.73166 13.3078 5.72905 13.2998 5.72642Z" fill="#B0B8BC"/>
</svg>
