<svg width="16" height="17" viewBox="0 0 16 17" fill="none" xmlns="http://www.w3.org/2000/svg">
<path fill-rule="evenodd" clip-rule="evenodd" d="M5 0.605225H11C13.761 0.605225 16 2.84422 16 5.60522V11.6052C16 14.3662 13.761 16.6052 11 16.6052H5C2.239 16.6052 0 14.3662 0 11.6052V5.60522C0 2.84422 2.239 0.605225 5 0.605225ZM11 15.1052C12.93 15.1052 14.5 13.5352 14.5 11.6052V5.60522C14.5 3.67522 12.93 2.10522 11 2.10522H5C3.07 2.10522 1.5 3.67522 1.5 5.60522V11.6052C1.5 13.5352 3.07 15.1052 5 15.1052H11ZM4 8.60522C4 6.39622 5.791 4.60522 8 4.60522C10.209 4.60522 12 6.39622 12 8.60522C12 10.8142 10.209 12.6052 8 12.6052C5.791 12.6052 4 10.8142 4 8.60522ZM5.5 8.60522C5.5 9.98322 6.622 11.1052 8 11.1052C9.378 11.1052 10.5 9.98322 10.5 8.60522C10.5 7.22622 9.378 6.10522 8 6.10522C6.622 6.10522 5.5 7.22622 5.5 8.60522ZM12.833 4.30523C12.833 4.5996 12.5944 4.83823 12.3 4.83823C12.0057 4.83823 11.767 4.5996 11.767 4.30523C11.767 4.01086 12.0057 3.77223 12.3 3.77223C12.5944 3.77223 12.833 4.01086 12.833 4.30523Z" fill="#B0B8BC"/>
</svg>
